<!DOCTYPE svg PUBLIC "-//W3C//DTD SVG 20010904//EN" "http://www.w3.org/TR/2001/REC-SVG-20010904/DTD/svg10.dtd">
<svg version="1.0" xmlns="http://www.w3.org/2000/svg" width="1031px" height="383px" viewBox="0 0 10310 3830" preserveAspectRatio="xMidYMid meet"><g fill="#aab7ac" stroke="none">
 <path d="M463 3627 c-23 -7 -48 -18 -55 -25 -6 -6 -17 -12 -24 -12 -15 0 -144 -160 -144 -177 0 -7 7 -14 15 -14 8 -1 21 -2 28 -3 6 -1 28 1 47 6 19 4 93 10 165 14 135 6 157 11 134 25 -18 11 -211 11 -269 -1 -25 -4 -46 -7 -48 -5 -5 5 55 89 80 111 67 63 147 80 239 53 48 -15 217 -176 248 -237 12 -23 41 -72 64 -110 43 -66 47 -79 94 -292 35 -160 46 -206 54 -222 5 -10 9 -26 9 -37 0 -10 6 -34 14 -52 7 -19 21 -77 30 -129 21 -116 47 -221 57 -235 4 -6 13 -33 19 -60 5 -28 21 -86 34 -130 13 -44 38 -130 55 -192 17 -62 39 -131 50 -155 69 -153 130 -300 141 -343 36 -136 120 -323 252 -562 41 -73 171 -287 185 -304 7 -9 33 -57 58 -107 41 -85 46 -91 67 -83 21 8 23 15 23 72 0 49 -6 77 -27 122 -16 32 -28 62 -28 68 0 5 -8 26 -19 47 -10 20 -22 53 -26 72 -4 19 -13 42 -21 51 -8 8 -15 29 -18 45 -2 16 -9 43 -16 59 -8 17 -14 37 -15 45 -1 9 -9 31 -17 50 -8 19 -25 71 -38 115 -40 143 -53 179 -85 250 -40 86 -94 261 -100 320 -3 34 -21 85 -41 117 -13 21 -24 40 -24 42 0 3 -5 17 -12 33 -7 15 -13 33 -13 38 -1 6 -6 21 -12 35 -6 14 -21 57 -33 95 -12 39 -28 85 -37 103 -8 18 -16 43 -19 55 -2 12 -17 48 -34 80 -16 32 -30 63 -30 69 0 6 -9 29 -19 52 -26 56 -58 142 -71 193 -6 23 -15 45 -20 48 -6 3 -10 14 -10 23 0 9 -11 40 -25 67 -13 28 -25 55 -25 61 0 6 -9 19 -19 28 -11 10 -22 30 -25 44 -3 15 -26 68 -51 117 -113 231 -130 291 -110 401 27 151 89 154 230 11 58 -58 96 -108 129 -170 26 -48 52 -89 57 -93 6 -3 20 -3 33 0 47 12 70 143 46 256 -6 25 -13 56 -16 69 -5 23 -4 24 46 19 39 -4 58 -12 76 -31 13 -14 24 -29 24 -32 0 -9 50 -84 98 -147 36 -48 48 -58 73 -58 30 0 103 31 113 49 4 5 -5 34 -18 63 -32 72 -34 90 -13 111 28 28 61 11 142 -72 81 -82 118 -96 181 -66 30 14 35 21 29 38 -4 12 -11 46 -17 75 -12 64 -2 82 36 64 28 -12 52 -56 82 -145 29 -89 95 -154 140 -137 29 11 35 33 22 72 -12 38 -44 67 -74 68 -26 0 -44 19 -44 46 0 13 -4 26 -10 29 -13 8 -13 72 1 80 6 4 26 4 45 0 41 -7 171 -124 180 -161 7 -29 20 -31 34 -4 13 24 2 49 -35 78 -14 11 -25 24 -25 30 0 16 -110 91 -151 103 -32 10 -42 9 -77 -11 -39 -22 -42 -22 -82 -6 -50 20 -76 14 -84 -19 -8 -31 -17 -31 -54 0 -62 52 -113 52 -126 0 -6 -25 -39 -35 -51 -15 -3 6 -21 10 -40 10 -24 0 -39 -7 -54 -26 l-20 -25 -38 33 c-64 57 -124 74 -148 41 -10 -13 -17 -14 -45 -5 -18 7 -54 12 -80 12 -41 0 -55 6 -96 41 -49 40 -50 41 -113 35 -68 -6 -110 -26 -119 -58 -4 -16 -10 -18 -36 -12 -54 13 -109 5 -148 -23 -21 -14 -38 -34 -38 -43 0 -10 -7 -31 -15 -46 -8 -16 -15 -41 -15 -56 0 -16 -4 -28 -10 -28 -5 0 -31 32 -57 72 -27 39 -66 88 -88 109 -22 20 -56 51 -75 68 -56 52 -108 74 -180 77 -36 1 -84 -3 -107 -9z m951 -118 l35 -30 -32 -27 c-69 -59 -65 -58 -97 -27 -32 31 -41 80 -18 103 23 23 75 14 112 -19z m363 -66 c40 -37 60 -70 78 -129 18 -60 18 -64 2 -64 -19 0 -69 65 -111 144 -20 37 -36 70 -36 72 0 14 41 0 67 -23z m376 -22 c37 -36 49 -55 50 -81 1 -18 -3 -35 -9 -37 -15 -5 -74 55 -89 92 -38 91 -24 98 48 26z m-669 -40 c17 -54 21 -157 7 -180 -7 -11 -13 -6 -26 19 -10 19 -33 55 -51 82 -19 26 -35 52 -36 58 -2 7 77 70 88 70 1 0 9 -22 18 -49z m1011 -148 c4 -14 2 -23 -5 -23 -12 0 -30 41 -23 53 7 11 19 -2 28 -30z m-1357 -350 c16 -32 47 -94 69 -138 42 -83 71 -153 118 -290 29 -85 45 -126 75 -190 42 -93 50 -116 85 -235 19 -69 55 -170 80 -225 24 -55 55 -149 70 -209 14 -60 41 -150 61 -200 56 -144 70 -184 102 -301 31 -113 131 -405 152 -445 19 -35 4 -34 -19 2 -11 18 -26 42 -33 53 -7 11 -33 52 -58 90 -95 147 -280 554 -280 614 0 15 -64 182 -95 246 -54 114 -84 196 -110 305 -7 30 -23 89 -35 130 -11 41 -33 116 -46 165 -14 50 -32 112 -39 138 -8 27 -17 67 -20 90 -11 78 -27 149 -42 185 -9 21 -26 86 -39 146 -13 59 -27 112 -30 117 -3 5 -3 9 0 9 3 0 19 -26 34 -57z"/>
 <path d="M9122 3621 c-19 -10 -38 -24 -43 -32 -12 -19 -1 -67 22 -101 11 -14 19 -30 19 -35 0 -8 33 -44 67 -73 17 -14 16 -15 -1 -18 -18 -4 -66 37 -66 55 0 14 -87 83 -138 111 -83 44 -232 41 -232 -5 0 -7 -5 -13 -11 -13 -6 0 -10 -20 -8 -52 2 -41 -1 -52 -12 -50 -8 2 -16 8 -18 14 -2 6 -12 19 -22 29 -10 10 -24 29 -31 43 -20 37 -86 79 -115 71 -13 -3 -23 -11 -22 -18 1 -7 -1 -20 -6 -31 -7 -16 1 -84 21 -178 5 -21 2 -28 -9 -28 -9 0 -28 12 -44 28 -186 177 -203 187 -240 139 l-17 -23 -48 23 c-70 34 -96 31 -114 -12 -16 -40 -22 -42 -55 -17 -66 51 -150 52 -194 4 -14 -15 -25 -32 -25 -39 0 -7 -20 -21 -44 -31 -26 -12 -45 -28 -49 -41 -7 -27 6 -34 43 -26 24 5 34 2 50 -17 11 -12 19 -30 20 -39 0 -9 7 -22 15 -29 8 -7 15 -18 15 -24 1 -14 87 -73 120 -81 19 -5 31 0 49 19 20 21 23 32 18 71 -6 59 -35 90 -126 135 -73 36 -84 52 -52 70 29 15 60 12 89 -9 15 -10 38 -22 51 -26 13 -4 54 -36 93 -71 54 -49 82 -68 126 -80 l56 -17 23 27 c34 40 39 72 15 114 -58 106 -33 106 77 2 101 -96 121 -110 161 -110 24 0 33 6 40 26 15 38 12 93 -9 151 -25 75 -12 87 38 35 22 -23 52 -62 66 -87 30 -50 48 -55 80 -25 l22 20 26 -26 c65 -65 175 -96 197 -55 14 28 12 73 -5 95 -19 25 -78 47 -138 51 -26 2 -54 9 -62 15 -20 16 -19 46 1 54 26 10 98 7 135 -5 46 -16 124 -73 156 -115 25 -33 25 -35 8 -54 -36 -40 -15 -100 35 -100 45 0 60 10 60 39 0 15 2 30 5 33 5 5 86 -8 155 -24 10 -2 16 6 18 22 2 21 -6 30 -50 54 -60 33 -134 106 -163 160 -27 51 -13 61 83 61 67 0 86 -4 150 -34 48 -23 72 -40 72 -52 0 -19 -17 -35 -44 -40 -34 -7 -29 -27 11 -38 21 -6 44 -11 51 -11 24 0 52 40 52 74 0 29 -8 40 -47 73 -53 43 -83 55 -191 78 -90 18 -117 18 -160 -4z m-972 -206 c35 -18 57 -38 76 -70 14 -25 24 -49 21 -52 -11 -10 -116 47 -142 78 -25 31 -34 69 -15 69 6 0 33 -11 60 -25z m766 -52 c13 -8 24 -24 24 -34 0 -18 -2 -18 -27 -6 -16 7 -36 12 -45 10 -13 -3 -16 0 -12 11 4 9 0 18 -10 22 -9 3 -13 10 -10 16 8 12 48 3 80 -19z m-998 -95 c40 -25 66 -62 58 -83 -8 -21 -32 -10 -97 49 -15 12 -32 33 -39 46 -12 22 -11 22 16 16 16 -4 44 -17 62 -28z"/>
 <path d="M2960 3518 c-45 -23 -70 -51 -57 -64 4 -4 15 0 24 8 23 19 66 31 118 31 33 -1 101 -25 175 -63 9 -4 30 -11 47 -14 40 -9 50 -36 30 -79 -17 -35 -32 -197 -19 -197 4 0 6 -15 4 -33 -4 -37 26 -132 54 -167 59 -75 113 -120 143 -120 17 0 31 -4 31 -9 0 -22 200 -30 254 -10 44 16 45 16 122 -136 30 -60 63 -123 73 -140 10 -16 31 -64 45 -105 15 -41 54 -129 87 -196 32 -66 59 -130 59 -140 0 -11 4 -24 8 -29 26 -29 35 -110 36 -299 1 -153 4 -200 14 -204 9 -3 10 -7 2 -17 -8 -9 -7 -17 2 -26 14 -15 38 -77 38 -98 0 -6 5 -17 10 -24 29 -34 59 -89 65 -118 4 -19 15 -52 26 -74 10 -22 25 -57 33 -77 16 -39 41 -49 64 -26 16 16 15 90 -4 168 -8 36 -17 97 -20 135 -7 98 -21 172 -39 208 -8 16 -28 77 -44 136 -17 58 -43 133 -60 166 -25 52 -29 69 -27 130 2 39 10 93 20 120 9 28 21 64 26 81 8 25 23 140 23 179 0 17 -13 157 -19 210 -12 96 -86 379 -105 399 -5 6 -9 17 -9 25 0 19 -69 157 -111 222 -18 28 -53 63 -87 85 -61 40 -80 54 -157 112 -27 21 -63 43 -80 49 -38 14 -220 15 -260 1 -60 -20 -100 -41 -123 -61 -26 -24 -42 -21 -178 44 -99 47 -165 52 -234 17z m765 -53 c17 -3 55 -25 85 -50 30 -25 84 -65 120 -89 36 -24 72 -52 81 -62 25 -31 89 -144 89 -159 0 -8 4 -16 9 -20 5 -3 15 -22 21 -43 12 -40 21 -63 39 -102 6 -14 12 -34 14 -45 1 -11 5 -24 8 -30 4 -5 14 -50 23 -100 10 -49 21 -103 26 -120 18 -61 31 -287 18 -315 -4 -8 -12 -42 -18 -75 -19 -101 -21 -108 -29 -123 -7 -12 -10 -10 -16 9 -4 13 -29 67 -55 120 -26 52 -59 129 -75 170 -15 40 -41 93 -57 116 -15 23 -28 45 -28 49 0 16 -57 133 -87 179 -18 27 -33 53 -33 56 0 4 15 23 32 44 52 58 76 178 45 232 -22 40 -76 118 -104 152 -27 32 -30 33 -82 28 -29 -3 -61 -13 -70 -21 -10 -9 -21 -16 -26 -16 -5 0 -19 -9 -31 -21 l-22 -21 -46 35 c-25 19 -63 56 -84 83 -21 27 -46 55 -55 63 -10 7 -17 19 -17 26 0 18 43 44 86 53 38 8 188 6 239 -3z m-340 -121 c9 -4 24 -23 35 -44 10 -20 36 -50 57 -65 69 -53 127 -120 161 -185 46 -90 68 -126 92 -150 44 -44 7 -62 -111 -51 -133 12 -198 56 -250 166 -35 74 -48 204 -29 283 12 53 16 57 45 46z m414 -153 c20 -22 35 -44 33 -50 -2 -6 1 -11 7 -11 6 0 11 -5 11 -10 0 -6 9 -23 20 -38 18 -24 19 -33 9 -89 -10 -56 -37 -103 -58 -103 -13 0 -77 91 -118 169 -20 36 -43 74 -51 83 -21 25 -8 46 40 68 59 27 66 26 107 -19z m476 -1443 c3 -24 10 -52 15 -63 33 -75 61 -181 65 -250 3 -44 8 -91 11 -105 7 -37 -57 73 -85 145 -18 48 -24 85 -27 188 -3 74 0 127 5 127 5 0 12 -19 16 -42z"/>
 <path d="M5145 3514 c-69 -9 -109 -27 -147 -66 -38 -39 -40 -40 -71 -27 -18 7 -49 23 -69 36 -46 28 -122 31 -155 5 -12 -9 -33 -36 -46 -60 -20 -35 -23 -50 -17 -87 10 -65 35 -89 85 -81 47 7 119 42 174 85 21 17 43 31 48 31 20 0 203 -233 203 -260 0 -5 4 -10 9 -10 5 0 13 -10 17 -22 4 -13 22 -54 39 -93 18 -38 39 -87 46 -107 7 -21 17 -38 21 -38 4 0 8 -7 8 -15 0 -9 14 -45 30 -82 17 -36 32 -76 34 -89 3 -12 9 -32 15 -43 13 -23 51 -142 57 -179 3 -13 11 -49 19 -80 17 -62 10 -74 -35 -66 -36 7 -132 -59 -224 -156 -73 -76 -102 -132 -89 -166 3 -8 1 -14 -5 -14 -5 0 -13 -19 -16 -42 -26 -153 28 -354 119 -443 32 -32 136 -105 149 -105 4 0 27 -13 51 -30 24 -16 53 -30 64 -30 11 0 22 -4 25 -8 6 -10 76 -16 166 -16 67 0 100 10 235 75 113 53 141 75 181 136 21 32 56 81 79 108 59 72 76 103 77 136 1 16 5 32 10 35 4 3 6 10 3 15 -7 11 15 170 25 184 5 6 8 36 9 68 0 32 5 83 10 115 14 79 7 160 -17 209 -12 22 -19 43 -16 45 2 3 -5 33 -16 68 -11 34 -20 68 -20 74 0 6 -6 23 -14 38 -8 14 -19 43 -26 65 -18 53 -126 286 -163 348 -52 89 -76 123 -102 148 -16 15 -62 59 -102 97 -40 37 -92 85 -117 105 -53 43 -250 145 -280 145 -12 0 -26 4 -32 10 -21 21 -164 42 -229 34z m170 -58 c76 -22 248 -101 300 -139 63 -45 217 -187 265 -245 77 -91 211 -369 277 -572 70 -218 68 -203 48 -475 -1 -16 -12 -93 -25 -170 -23 -139 -23 -140 -79 -223 -31 -45 -66 -98 -77 -118 -29 -49 -38 -56 -129 -105 -166 -89 -150 -84 -275 -84 -113 0 -116 1 -195 39 -73 35 -149 88 -201 140 -76 77 -117 257 -88 387 19 90 47 133 142 225 70 67 78 72 131 78 63 8 81 -5 81 -56 0 -15 4 -28 9 -28 15 0 24 -83 22 -200 0 -36 1 -92 3 -125 3 -33 -2 -91 -10 -130 -8 -38 -14 -86 -13 -105 l0 -35 19 46 c10 25 22 63 25 83 4 20 11 36 16 36 13 0 11 97 -1 105 -7 4 -7 11 -2 18 11 15 -2 309 -14 328 -5 8 -10 24 -12 37 -3 21 1 22 64 22 54 0 78 -6 128 -31 33 -16 70 -41 82 -55 20 -24 22 -24 38 -9 9 9 16 25 16 35 0 21 -33 57 -62 66 -10 3 -18 9 -18 14 0 10 -147 50 -188 50 -64 0 -77 12 -96 91 -10 41 -42 147 -72 237 -49 149 -66 191 -124 317 -27 58 -65 145 -79 182 -7 17 -23 41 -37 54 -13 12 -24 27 -24 32 0 5 -15 28 -32 51 -18 22 -40 50 -48 60 -8 11 -30 36 -47 56 -18 21 -33 42 -33 48 0 20 70 71 107 77 21 4 45 8 53 10 26 6 93 -2 155 -19z m-477 -45 c69 -24 81 -36 51 -51 -12 -7 -32 -21 -43 -32 -31 -28 -100 -61 -122 -56 -26 5 -48 49 -41 80 4 13 16 37 28 51 25 32 52 34 127 8z"/>
 <path d="M7421 3506 c-13 -15 -17 -137 -8 -211 3 -22 11 -85 17 -141 12 -98 8 -188 -10 -199 -4 -3 -18 10 -29 28 -25 38 -66 95 -86 119 -7 9 -11 18 -9 21 3 3 -6 21 -20 42 -14 20 -28 45 -31 56 -4 10 -11 19 -16 19 -5 0 -14 10 -20 23 -33 73 -109 202 -120 204 -44 8 -55 -47 -33 -167 7 -41 16 -90 18 -109 3 -18 9 -38 15 -45 5 -6 12 -26 16 -43 3 -18 10 -33 15 -33 4 0 6 -8 3 -19 -3 -10 2 -45 10 -77 8 -33 18 -81 22 -109 10 -75 13 -94 25 -152 6 -29 10 -61 9 -70 -1 -10 1 -38 5 -63 3 -25 8 -74 11 -110 7 -107 16 -190 31 -285 27 -170 38 -414 23 -519 -14 -102 -74 -197 -133 -212 -35 -9 -107 27 -156 77 -60 62 -169 232 -191 299 -4 14 -19 57 -33 95 -14 39 -26 80 -26 93 0 13 -6 35 -14 50 -7 15 -21 61 -31 102 -9 41 -23 95 -32 120 -8 25 -15 63 -17 85 -1 22 -5 45 -9 52 -8 13 -14 70 -22 223 -3 52 -9 120 -13 150 -4 30 -2 99 4 152 7 53 10 111 8 130 -7 57 -4 192 6 223 16 55 27 156 16 152 -23 -8 -46 -56 -51 -105 -3 -30 -10 -62 -15 -71 -5 -10 -10 -81 -10 -157 -1 -76 -2 -200 -2 -274 -1 -126 6 -302 16 -395 5 -45 28 -143 53 -225 9 -30 17 -64 18 -75 0 -11 6 -36 12 -55 6 -19 21 -71 33 -115 13 -44 29 -94 36 -112 8 -17 14 -36 14 -41 0 -6 10 -32 22 -59 12 -26 22 -50 23 -53 4 -18 36 -68 54 -84 12 -11 21 -23 21 -29 0 -23 95 -126 152 -164 70 -47 101 -55 163 -39 25 6 80 59 98 94 7 15 18 36 24 47 30 55 38 115 38 280 0 154 -7 237 -35 420 -6 33 -12 98 -16 145 -9 135 -20 246 -29 295 -3 17 -9 66 -14 110 -12 105 -37 229 -69 335 -9 30 -15 58 -14 62 1 4 -3 20 -10 35 -6 15 -12 35 -13 43 -2 8 -6 31 -10 50 l-7 35 26 -37 c14 -20 26 -42 26 -47 0 -6 5 -11 10 -11 6 0 10 -7 10 -15 0 -7 6 -18 13 -22 12 -8 32 -36 44 -63 3 -8 16 -28 27 -45 12 -16 35 -56 52 -88 17 -32 34 -58 38 -57 5 0 15 -14 25 -32 17 -34 55 -60 77 -51 42 16 49 200 14 382 -15 81 -5 79 26 -4 4 -11 8 -24 10 -30 26 -81 125 -361 138 -385 9 -18 16 -39 16 -45 0 -12 79 -191 102 -230 6 -11 25 -45 41 -75 17 -30 58 -99 91 -152 34 -53 75 -120 91 -148 17 -28 45 -71 63 -95 17 -24 32 -46 32 -49 0 -3 32 -52 71 -110 71 -106 177 -226 303 -346 38 -36 99 -94 137 -130 163 -156 293 -253 417 -311 94 -44 133 -48 162 -19 49 49 56 162 16 255 -10 22 -20 52 -23 66 -6 31 -48 87 -58 77 -4 -4 4 -35 18 -70 42 -104 55 -239 26 -274 -21 -25 -133 13 -211 73 -31 23 -61 43 -67 43 -6 0 -11 4 -11 8 0 4 -14 16 -32 27 -18 10 -46 33 -63 49 -18 17 -63 59 -101 93 -38 34 -91 83 -119 108 -27 25 -53 45 -57 45 -5 0 -8 6 -8 14 0 7 -12 21 -26 31 -14 9 -38 30 -52 47 -15 17 -46 49 -69 72 -24 23 -43 45 -43 49 0 11 -93 131 -113 146 -10 7 -16 19 -13 27 3 7 1 16 -4 19 -10 6 -62 81 -73 105 -4 8 -29 49 -57 90 -27 41 -54 84 -59 95 -5 12 -16 27 -25 34 -9 7 -16 22 -16 32 0 11 -4 19 -9 19 -5 0 -16 17 -24 38 -8 20 -24 46 -36 56 -12 11 -21 27 -21 36 0 9 -8 25 -18 36 -18 19 -102 197 -102 215 0 5 -9 22 -20 38 -12 15 -22 38 -22 52 -1 13 -8 33 -15 44 -7 11 -13 27 -13 36 0 10 -7 30 -14 46 -20 39 -29 64 -32 93 -2 14 -7 26 -13 28 -5 2 -7 12 -4 23 4 15 0 22 -16 26 -16 4 -19 9 -11 18 7 9 6 21 -4 41 -8 16 -22 54 -31 84 -9 30 -19 62 -22 70 -3 8 -7 26 -9 39 -5 39 -25 81 -39 81 -7 0 -18 -6 -24 -14z"/>
 <path d="M4184 3480 c-47 -19 -36 -114 14 -127 56 -14 98 88 50 121 -25 18 -34 19 -64 6z"/>
 <path d="M5976 3459 c-19 -28 -10 -53 31 -89 39 -34 44 -35 81 -16 21 11 28 23 30 48 3 48 -15 65 -75 71 -45 5 -55 3 -67 -14z"/>
 </g>

</svg>