<!DOCTYPE svg PUBLIC "-//W3C//DTD SVG 20010904//EN" "http://www.w3.org/TR/2001/REC-SVG-20010904/DTD/svg10.dtd">
<svg version="1.0" xmlns="http://www.w3.org/2000/svg" width="615px" height="683px" viewBox="0 0 6150 6830" preserveAspectRatio="xMidYMid meet">
	<g fill="none" stroke="#1e2022" stroke-width="45">
	 	<path d="M2894 6003 c14 -202 16 -464 5 -636 -11 -172 -10 -194 6 -255 18 -69 47 -112 74 -112 11 0 8 7 -10 23 -19 15 -32 43 -44 90 -17 62 -17 84 -6 255 16 249 3 712 -21 712 -6 0 -7 -30 -4 -77z"/>
     <path d="M980 5401 c0 -12 48 -46 80 -56 31 -10 90 -56 194 -153 49 -46 104 -85 144 -104 35 -17 78 -43 96 -57 31 -27 138 -90 206 -122 19 -9 77 -55 128 -104 50 -48 92 -82 92 -77 0 22 -195 196 -233 208 -12 4 -24 9 -27 13 -3 3 -34 21 -70 40 -36 19 -79 47 -96 61 -18 15 -58 40 -90 55 -33 15 -66 33 -74 40 -8 8 -54 49 -102 92 -104 94 -135 118 -168 128 -14 4 -37 16 -52 27 -16 11 -28 15 -28 9z"/>
     <path d="M5483 5188 c-13 -6 -23 -15 -23 -20 0 -4 -8 -8 -18 -8 -16 0 -97 -34 -144 -60 -10 -6 -32 -10 -50 -10 -48 0 -225 -54 -258 -79 -16 -11 -34 -21 -40 -21 -5 0 -10 -4 -10 -9 0 -5 -12 -12 -27 -16 -16 -3 -41 -16 -58 -28 -16 -13 -43 -29 -60 -37 -16 -8 -32 -17 -35 -20 -12 -12 -69 -38 -122 -55 -32 -11 -58 -23 -58 -27 0 -4 -4 -8 -9 -8 -5 0 -38 -19 -74 -43 -35 -24 -79 -49 -96 -56 -26 -11 -43 -31 -26 -31 12 0 90 43 134 74 48 34 152 86 171 86 6 0 32 12 58 27 26 14 56 31 67 37 11 6 34 21 50 32 17 12 41 25 55 29 14 4 44 21 67 38 44 31 215 87 269 87 26 0 99 28 156 60 10 6 26 10 35 10 10 0 34 14 53 30 36 30 33 37 -7 18z"/>
     <path id="path-squiggle" d="M2955 4695 c-5 -2 -82 -9 -170 -14 -129 -8 -174 -14 -234 -35 -113 -39 -223 -108 -301 -188 -39 -39 -70 -73 -70 -75 0 -2 -11 -14 -25 -27 -13 -12 -32 -45 -41 -72 -26 -78 -71 -166 -103 -203 -32 -37 -91 -151 -91 -176 0 -8 -4 -15 -9 -15 -9 0 -44 -91 -61 -160 -12 -50 -13 -246 -1 -547 11 -268 14 -290 55 -328 19 -17 46 -63 46 -78 0 -7 5 -18 11 -24 12 -12 42 -97 54 -151 9 -45 35 -94 59 -113 55 -44 206 -206 206 -221 0 -5 8 -12 18 -15 9 -4 44 -30 77 -59 33 -28 85 -67 115 -87 30 -19 74 -52 97 -74 71 -65 124 -108 144 -115 10 -4 19 -11 19 -17 0 -5 8 -11 18 -14 21 -7 72 -38 91 -56 8 -7 33 -22 55 -32 23 -11 59 -33 81 -49 39 -29 65 -38 65 -22 0 4 -13 13 -29 20 -16 7 -46 26 -67 43 -20 16 -41 29 -47 29 -6 0 -24 10 -41 23 -17 12 -43 28 -57 36 -14 7 -39 24 -54 37 -15 13 -34 24 -42 24 -7 0 -13 4 -13 8 0 5 -18 21 -40 38 -23 16 -57 45 -78 65 -20 20 -71 59 -112 87 -91 61 -170 128 -230 195 -25 27 -80 85 -122 128 -57 59 -80 90 -89 121 -30 111 -54 176 -86 229 -20 33 -38 59 -42 59 -22 0 -33 77 -42 317 -15 395 -12 512 18 602 13 42 28 80 33 86 4 5 20 39 34 74 14 35 38 80 53 100 43 55 83 120 83 134 0 7 6 21 14 32 8 11 19 39 26 63 16 52 181 228 250 267 174 97 237 111 555 124 255 11 300 8 440 -24 39 -9 81 -19 95 -22 14 -2 34 -8 45 -13 11 -5 38 -14 59 -21 22 -6 65 -25 97 -40 32 -16 62 -29 67 -29 5 0 15 -7 22 -15 7 -8 21 -15 31 -15 20 0 37 -12 94 -67 19 -18 38 -33 43 -33 5 0 14 -10 21 -22 6 -13 42 -50 79 -83 118 -106 182 -175 203 -220 11 -24 27 -49 35 -56 8 -6 14 -19 14 -29 0 -9 9 -25 20 -35 11 -10 20 -24 20 -30 0 -7 7 -18 15 -25 8 -7 15 -22 15 -34 0 -12 16 -45 35 -75 19 -29 35 -55 35 -59 0 -3 7 -13 15 -22 11 -12 19 -52 25 -121 5 -57 16 -142 25 -189 18 -95 13 -205 -12 -305 -8 -33 -18 -96 -23 -140 -4 -50 -17 -100 -32 -135 -14 -30 -28 -64 -32 -75 -5 -17 -34 -56 -75 -100 -73 -80 -255 -222 -371 -289 -78 -45 -77 -44 -126 -77 -62 -41 -121 -57 -231 -64 -56 -3 -114 -12 -130 -20 -22 -11 -79 -15 -225 -17 l-196 -3 -29 27 c-15 15 -44 34 -63 43 -42 19 -67 34 -92 57 -10 10 -25 18 -34 18 -19 0 -47 22 -188 154 -184 171 -261 249 -297 301 -19 28 -39 55 -45 60 -20 17 -91 148 -104 190 -7 22 -19 49 -26 60 -10 15 -14 82 -14 265 -2 297 10 360 94 503 28 49 66 116 84 150 55 104 163 198 297 261 44 21 89 42 100 47 47 22 164 49 213 49 29 0 81 -6 115 -14 34 -8 85 -19 112 -26 94 -21 113 -27 146 -52 19 -14 57 -36 84 -49 71 -34 241 -209 256 -263 6 -22 21 -60 34 -85 47 -92 85 -164 94 -175 4 -6 11 -20 14 -31 3 -11 20 -54 38 -95 33 -77 36 -106 51 -476 3 -61 -44 -134 -170 -264 -66 -69 -132 -132 -148 -140 -16 -8 -52 -29 -81 -48 -57 -36 -116 -51 -239 -59 -73 -4 -86 -2 -132 21 -28 14 -53 30 -57 36 -3 5 -14 10 -24 10 -10 0 -33 16 -52 35 -19 19 -39 35 -45 35 -5 0 -53 45 -106 100 -53 55 -100 100 -104 100 -9 0 -48 45 -98 115 -16 22 -32 42 -35 45 -11 9 -30 53 -51 113 -10 32 -33 79 -50 104 -26 37 -32 58 -36 122 -4 43 -2 87 4 101 9 21 11 16 11 -35 1 -80 17 -132 41 -140 11 -4 45 -3 76 1 107 13 183 118 143 197 -28 54 -96 107 -137 107 -26 0 -103 -57 -109 -81 -3 -10 -11 -19 -18 -19 -24 0 -38 -58 -32 -128 5 -62 26 -118 82 -222 8 -14 22 -47 32 -73 10 -26 31 -62 46 -79 16 -17 40 -49 54 -70 14 -21 30 -38 34 -38 5 0 9 -7 9 -15 0 -9 8 -19 17 -22 23 -9 52 -34 141 -125 42 -43 80 -78 84 -78 5 0 25 -16 45 -35 20 -19 44 -35 54 -35 10 0 21 -5 24 -10 4 -6 29 -22 57 -36 46 -23 59 -25 132 -21 123 8 182 23 239 59 29 19 65 40 81 48 15 8 85 74 155 146 131 135 185 215 183 271 -7 241 -21 413 -34 443 -9 19 -26 60 -38 90 -25 60 -46 104 -81 165 -50 89 -70 132 -75 168 -5 30 -27 57 -118 150 -76 77 -127 120 -161 136 -27 13 -65 35 -84 49 -33 25 -52 31 -146 52 -27 7 -78 18 -112 26 -34 8 -86 14 -115 14 -49 0 -166 -27 -213 -49 -11 -5 -56 -26 -100 -47 -133 -62 -259 -173 -310 -273 -14 -29 -41 -76 -61 -106 -51 -81 -94 -167 -94 -190 0 -11 -7 -42 -16 -70 -12 -40 -15 -99 -14 -285 l1 -235 34 -86 c19 -48 48 -107 65 -132 16 -25 30 -48 30 -52 0 -5 16 -27 35 -51 19 -23 35 -45 35 -49 0 -8 46 -60 83 -94 16 -14 48 -44 71 -66 249 -237 315 -295 340 -295 8 0 22 -8 32 -17 19 -19 42 -34 89 -56 17 -8 46 -27 65 -43 l34 -29 195 3 c145 2 202 6 224 17 16 8 74 17 130 20 110 7 169 23 231 64 56 37 52 35 158 96 53 30 98 59 100 63 2 4 28 25 58 47 60 43 92 70 150 128 21 20 43 37 49 37 6 0 11 7 11 15 0 8 4 15 9 15 12 0 84 142 104 206 8 27 18 79 21 116 3 37 12 91 20 120 24 88 28 203 11 298 -9 47 -20 129 -25 183 -8 83 -14 106 -39 145 -29 46 -48 83 -92 177 -11 24 -24 47 -30 50 -5 4 -16 21 -24 38 -48 103 -123 202 -202 266 -53 43 -120 109 -136 133 -11 15 -22 28 -26 28 -4 0 -31 23 -61 50 -33 30 -63 50 -77 50 -13 0 -26 7 -29 15 -4 8 -12 15 -20 15 -8 0 -38 12 -67 26 -65 32 -179 74 -201 74 -9 0 -24 4 -34 9 -42 22 -197 44 -332 47 -80 2 -149 2 -155 -1z"/>
     <path d="M2880 4030 c-154 -7 -208 -17 -280 -50 -51 -23 -107 -66 -98 -75 3 -3 18 5 34 17 81 65 176 84 469 93 l230 6 50 -26 c28 -15 63 -34 79 -43 74 -39 168 -175 219 -317 15 -43 36 -215 37 -307 0 -16 5 -28 11 -28 12 0 3 197 -12 275 -6 28 -35 101 -66 163 -57 117 -124 200 -188 234 -136 72 -121 68 -234 66 -58 -1 -171 -4 -251 -8z"/>
     <path d="M4979 3647 c6 -6 172 -10 458 -12 246 -1 481 -5 521 -10 47 -5 72 -4 72 2 0 20 -149 27 -603 29 -308 1 -455 -2 -448 -9z"/>
     <path d="M955 3447 c-85 -5 -160 -16 -190 -26 -36 -13 -69 -17 -119 -13 -64 4 -137 -9 -160 -30 -6 -4 -20 -8 -32 -8 -28 0 -54 -10 -54 -20 0 -13 68 0 120 22 34 15 64 19 125 16 55 -1 96 3 130 14 56 19 319 38 510 38 103 0 125 -3 154 -21 18 -11 35 -18 38 -15 10 9 -9 26 -44 41 -41 17 -241 18 -478 2z"/>
     <path id="right-eye" d="M3423 3273 c-22 -3 -44 -18 -72 -48 -37 -41 -41 -49 -41 -98 0 -49 4 -59 38 -97 44 -50 59 -50 133 -1 40 27 47 38 58 83 21 86 -15 172 -69 166 -8 0 -29 -3 -47 -5z m106 -103 c1 -20 -1 -22 -9 -10 -5 8 -9 31 -9 50 1 32 2 33 9 10 4 -14 8 -36 9 -50z m-85 5 c-26 -22 -29 -23 -36 -7 -11 29 -9 32 29 32 l36 0 -29 -25z m-52 -50 c2 -51 0 -64 -10 -60 -8 3 -16 5 -18 5 -6 0 -5 72 2 98 11 41 22 23 26 -43z m88 36 c0 -5 -6 -14 -14 -20 -12 -10 -14 -9 -11 6 2 10 4 19 4 21 2 6 21 1 21 -7z m-25 -61 c-10 -11 -25 -20 -34 -20 -10 0 -5 8 14 20 38 25 43 25 20 0z m19 -14 c-3 -8 -13 -17 -22 -21 -13 -5 -13 -2 3 15 21 24 26 25 19 6z m-8 -41 c-11 -8 -25 -15 -30 -15 -6 1 0 7 14 15 32 19 40 18 16 0z"/>
     <path d="M4800 2542 c0 -6 30 -20 66 -32 46 -16 94 -44 156 -91 50 -38 94 -69 99 -69 6 0 25 -15 43 -32 29 -29 75 -71 220 -199 123 -109 275 -210 340 -225 42 -10 25 12 -22 26 -39 13 -97 44 -122 67 -8 7 -43 34 -78 59 -34 26 -81 64 -104 85 -23 22 -45 39 -48 39 -3 0 -35 28 -72 63 -98 91 -138 126 -184 155 -39 25 -66 45 -132 98 -15 12 -52 29 -82 39 -30 10 -61 20 -67 23 -7 2 -13 0 -13 -6z"/>
     <path d="M1570 2085 c-6 -8 -21 -17 -32 -21 -12 -3 -33 -18 -48 -33 -25 -25 -148 -118 -248 -188 -25 -18 -87 -74 -137 -125 -125 -126 -272 -262 -318 -295 -21 -15 -34 -29 -28 -31 15 -5 84 49 167 133 40 39 82 78 95 87 14 8 47 39 74 67 28 28 68 69 90 91 41 41 291 232 371 283 24 16 44 33 44 38 0 14 -16 11 -30 -6z"/>
     <path d="M4070 1944 c0 -3 13 -16 29 -30 17 -14 47 -48 67 -77 21 -29 61 -79 90 -113 29 -33 64 -86 78 -117 15 -31 50 -91 79 -134 29 -43 61 -98 72 -123 11 -25 44 -73 75 -107 31 -35 77 -105 105 -159 28 -54 56 -100 63 -102 13 -4 5 15 -28 68 -5 8 -21 40 -35 70 -15 30 -50 81 -79 115 -29 33 -68 89 -86 125 -18 36 -47 86 -65 111 -18 26 -52 83 -76 127 -23 44 -54 93 -68 109 -15 15 -49 57 -76 93 -84 109 -145 171 -145 144z"/>
     <path d="M2492 1423 c3 -63 -39 -143 -139 -266 -34 -42 -73 -96 -85 -118 -27 -49 -27 -50 -101 -161 -31 -48 -68 -108 -82 -133 -13 -26 -40 -69 -59 -95 -20 -27 -54 -87 -76 -132 -53 -108 -75 -146 -98 -172 -28 -30 -44 -65 -36 -77 3 -6 14 6 24 28 9 21 24 44 33 51 9 8 37 55 63 105 26 51 53 103 60 117 8 14 29 48 48 75 19 28 46 73 61 100 28 55 40 74 103 165 23 34 42 64 42 66 0 11 99 157 139 204 26 30 58 73 72 95 28 43 61 143 53 157 -9 14 -23 8 -22 -9z"/>
     <path d="M3310 1383 c1 -25 19 -104 29 -128 5 -11 15 -36 21 -55 12 -32 18 -47 48 -121 6 -15 18 -57 27 -95 26 -113 34 -143 77 -279 23 -71 45 -134 50 -140 4 -5 8 -17 8 -27 0 -10 11 -45 24 -77 14 -32 28 -81 32 -109 7 -51 24 -73 24 -29 -1 33 -13 76 -68 232 -27 77 -51 147 -54 155 -3 8 -11 31 -17 50 -14 37 -24 75 -40 154 -23 103 -60 216 -116 351 -7 17 -16 54 -20 83 -4 28 -11 52 -16 52 -5 0 -9 -8 -9 -17z"/>
 </g>

</svg>