<!DOCTYPE svg PUBLIC "-//W3C//DTD SVG 20010904//EN" "http://www.w3.org/TR/2001/REC-SVG-20010904/DTD/svg10.dtd">
<svg version="1.0" xmlns="http://www.w3.org/2000/svg" width="615px" height="683px" viewBox="0 0 6150 6830" preserveAspectRatio="xMidYMid meet"><g fill="#fd1111" stroke="none">
 <path d="M2894 6003 c14 -202 16 -464 5 -636 -11 -172 -10 -194 6 -255 18 -69 47 -112 74 -112 11 0 8 7 -10 23 -19 15 -32 43 -44 90 -17 62 -17 84 -6 255 16 249 3 712 -21 712 -6 0 -7 -30 -4 -77z"/>
 <path d="M980 5402 c0 -13 47 -47 80 -57 31 -10 90 -56 194 -153 49 -46 104 -85 144 -104 35 -17 78 -43 96 -57 31 -27 138 -90 206 -122 19 -9 77 -55 128 -104 50 -48 92 -82 92 -77 0 16 -180 180 -219 200 -95 48 -190 104 -206 122 -10 11 -22 20 -28 20 -5 0 -21 8 -35 19 -15 10 -38 21 -53 24 -14 4 -71 49 -126 102 -56 52 -105 95 -111 95 -5 0 -16 7 -23 16 -8 9 -34 25 -59 36 -25 11 -53 27 -62 35 -10 9 -18 11 -18 5z"/>
 <path d="M5480 5180 c-14 -11 -31 -20 -37 -20 -7 0 -47 -16 -89 -35 -41 -19 -86 -35 -98 -35 -29 0 -169 -35 -220 -55 -21 -9 -52 -26 -70 -39 -17 -13 -42 -27 -56 -31 -14 -4 -38 -18 -55 -30 -39 -29 -161 -95 -175 -95 -22 0 -126 -54 -177 -92 -28 -20 -70 -45 -92 -54 -23 -9 -41 -20 -41 -25 0 -5 2 -9 5 -9 12 0 90 43 134 74 48 34 152 86 171 86 6 0 32 12 58 27 26 14 56 31 67 37 11 6 34 21 50 32 17 12 41 25 55 29 14 4 44 21 67 38 44 31 215 87 269 87 26 0 99 28 156 60 10 6 26 10 35 10 10 0 34 14 53 30 39 32 30 41 -10 10z"/>
 <path d="M2960 4697 c-3 -4 -80 -11 -170 -16 -135 -8 -179 -15 -240 -36 -109 -38 -220 -107 -300 -187 -38 -38 -70 -72 -70 -73 0 -2 -13 -19 -30 -37 -16 -18 -30 -37 -30 -43 0 -27 -68 -170 -103 -217 -41 -54 -97 -157 -97 -179 0 -7 -6 -20 -13 -28 -14 -16 -42 -89 -57 -151 -12 -50 -13 -247 -1 -547 11 -268 14 -290 55 -328 19 -17 46 -63 46 -78 0 -7 5 -18 11 -24 12 -12 42 -97 54 -151 9 -45 35 -94 59 -113 55 -44 206 -206 206 -221 0 -5 8 -12 18 -15 9 -4 44 -30 77 -59 33 -28 85 -67 115 -87 30 -19 74 -52 97 -74 71 -65 124 -108 144 -115 10 -4 19 -11 19 -17 0 -5 8 -11 18 -14 21 -7 72 -38 91 -56 8 -7 33 -22 55 -32 23 -11 59 -33 81 -49 41 -30 65 -38 65 -20 0 6 -5 10 -11 10 -6 0 -38 18 -70 40 -32 22 -61 40 -63 40 -8 0 -122 72 -144 90 -12 11 -27 20 -32 20 -6 0 -18 8 -28 18 -10 10 -36 31 -57 47 -22 17 -60 49 -85 73 -24 23 -50 42 -57 42 -7 0 -13 4 -13 10 0 5 -15 17 -32 26 -44 22 -162 123 -218 186 -25 28 -80 86 -122 129 -57 59 -80 90 -89 121 -30 111 -54 176 -86 229 -20 33 -38 59 -42 59 -22 0 -33 77 -42 317 -15 395 -12 512 18 602 13 42 28 80 33 86 4 5 20 39 34 74 14 35 38 80 53 100 43 55 83 120 83 134 0 7 6 21 14 32 8 11 19 39 26 63 16 52 181 228 250 267 175 98 231 110 555 123 143 6 283 7 310 3 95 -15 180 -33 197 -42 10 -5 29 -9 42 -9 14 0 27 -4 30 -9 3 -4 20 -11 38 -15 17 -3 65 -22 105 -41 41 -19 78 -35 82 -35 5 0 14 -7 21 -15 7 -8 21 -15 31 -15 20 0 37 -12 94 -67 19 -18 38 -33 43 -33 5 0 14 -10 21 -22 6 -13 42 -50 79 -83 118 -106 182 -175 203 -220 11 -24 27 -49 35 -56 8 -6 14 -19 14 -29 0 -9 9 -25 20 -35 11 -10 20 -24 20 -30 0 -7 7 -18 15 -25 8 -7 15 -22 15 -34 0 -12 16 -45 35 -75 19 -29 35 -55 35 -59 0 -3 7 -13 15 -22 11 -12 19 -52 25 -121 5 -57 16 -142 25 -189 18 -95 13 -205 -12 -305 -8 -33 -18 -96 -23 -140 -5 -52 -16 -100 -34 -137 -14 -31 -26 -61 -26 -66 0 -13 -60 -90 -109 -139 -51 -51 -161 -141 -218 -178 -24 -15 -43 -31 -43 -34 0 -4 -25 -19 -55 -35 -30 -15 -57 -32 -60 -37 -4 -5 -13 -9 -22 -9 -9 0 -26 -9 -37 -19 -12 -11 -48 -33 -81 -49 -51 -25 -77 -30 -168 -36 -64 -3 -119 -12 -137 -21 -22 -11 -75 -15 -229 -17 l-199 -3 -29 26 c-15 15 -52 38 -80 52 -29 14 -63 35 -75 47 -12 11 -28 20 -36 20 -16 0 -73 44 -133 102 -19 18 -103 98 -187 178 -84 80 -152 148 -152 153 0 9 -40 67 -56 82 -20 17 -91 148 -104 190 -7 22 -19 49 -26 60 -10 15 -14 82 -14 265 -2 297 10 360 94 503 28 49 66 116 84 150 55 104 163 198 297 261 44 21 89 42 100 47 47 22 164 49 213 49 29 0 81 -6 115 -14 34 -8 85 -19 112 -26 94 -21 113 -27 146 -52 19 -14 57 -36 84 -49 71 -34 241 -209 256 -263 11 -42 33 -87 93 -196 20 -36 38 -72 42 -80 3 -8 16 -40 29 -70 50 -119 55 -146 54 -283 0 -73 4 -154 10 -180 22 -96 -14 -161 -181 -329 -188 -188 -254 -222 -453 -235 -85 -5 -106 1 -216 65 -56 33 -66 41 -195 170 -57 56 -108 102 -112 102 -9 0 -24 17 -83 95 -61 80 -73 101 -96 170 -11 33 -39 89 -62 124 -39 61 -50 94 -33 105 10 6 37 -15 45 -37 5 -14 16 -17 44 -15 l38 3 8 60 c5 33 22 86 38 117 43 85 38 112 -27 155 -22 14 -27 13 -66 -6 -45 -21 -117 -89 -137 -128 -6 -12 -11 -46 -11 -77 0 -45 5 -60 25 -82 14 -15 25 -31 25 -36 0 -5 18 -37 39 -71 21 -34 46 -82 54 -107 27 -79 45 -115 72 -144 14 -16 38 -46 52 -67 14 -22 30 -39 34 -39 5 0 9 -7 9 -15 0 -9 8 -19 17 -22 23 -9 52 -34 141 -125 42 -43 80 -78 84 -78 5 0 25 -16 45 -35 20 -19 44 -35 54 -35 10 0 21 -5 24 -10 4 -6 29 -22 57 -36 46 -23 59 -25 132 -21 123 8 182 23 239 59 29 19 65 40 81 48 15 8 85 74 155 146 131 135 185 215 183 271 -7 241 -21 413 -34 443 -14 30 -42 98 -62 150 -4 8 -23 44 -42 80 -68 122 -84 155 -90 190 -12 65 -250 300 -304 300 -5 0 -28 13 -50 29 -43 31 -155 71 -199 71 -14 0 -51 7 -81 15 -85 23 -151 19 -251 -15 -228 -76 -404 -203 -474 -340 -14 -28 -41 -75 -61 -105 -51 -81 -94 -167 -94 -190 0 -11 -7 -42 -16 -70 -12 -40 -15 -99 -14 -285 l1 -235 34 -86 c19 -48 48 -107 65 -132 16 -25 30 -48 30 -52 0 -5 16 -27 35 -51 19 -23 35 -45 35 -49 0 -8 46 -60 83 -94 16 -14 48 -44 71 -66 249 -237 315 -295 340 -295 8 0 22 -8 32 -17 19 -19 42 -34 89 -56 17 -8 46 -27 65 -43 l34 -29 195 3 c145 2 202 6 224 17 16 8 74 17 130 20 110 7 169 23 231 64 56 37 52 35 158 96 53 30 98 59 100 63 2 4 28 25 58 47 60 43 92 70 150 128 21 20 43 37 49 37 6 0 11 7 11 15 0 8 4 15 9 15 12 0 84 142 104 206 8 27 18 79 21 116 3 37 12 91 20 120 24 88 28 203 11 298 -9 47 -20 129 -25 183 -8 83 -14 106 -39 145 -28 44 -51 88 -89 172 -9 19 -22 42 -29 51 -8 9 -22 32 -32 50 -57 107 -75 135 -114 176 -63 68 -68 73 -75 73 -7 0 -120 108 -154 146 -15 18 -53 52 -113 102 -15 12 -35 22 -45 22 -9 0 -23 7 -30 15 -7 8 -19 15 -27 15 -9 0 -41 13 -72 29 -31 16 -74 35 -96 41 -22 7 -44 16 -50 20 -5 4 -23 10 -40 13 -16 3 -70 15 -120 27 -87 20 -382 40 -395 27z m-386 -1026 c3 -5 -9 -11 -27 -14 -17 -3 -41 -8 -52 -12 -11 -3 -4 3 15 14 39 22 56 26 64 12z m43 -74 c-3 -22 -13 -46 -21 -53 -9 -8 -11 -9 -6 -2 6 7 10 34 10 61 0 33 4 46 11 41 7 -4 9 -22 6 -47z m-37 -2 c0 -46 -16 -63 -22 -22 -2 17 -13 25 -48 33 l-45 11 35 11 c19 6 45 11 58 11 20 1 22 -4 22 -44z m-100 -24 c-5 -11 -15 -23 -20 -26 -14 -9 -12 -78 3 -94 10 -11 9 -13 -3 -9 -11 3 -16 22 -18 63 -4 70 1 85 28 85 17 0 19 -3 10 -19z m-74 -19 c-18 -16 -18 -16 -6 6 6 13 14 21 18 18 3 -4 -2 -14 -12 -24z m113 -68 c-13 -16 -39 -19 -39 -5 0 19 21 66 33 73 17 10 22 -49 6 -68z m-87 -49 c2 -13 -3 -20 -12 -20 -23 0 -37 68 -20 102 l14 28 7 -45 c4 -25 9 -54 11 -65z m123 33 c-4 -13 -18 -34 -31 -48 l-24 -25 0 27 c0 18 7 29 20 33 11 3 20 13 20 21 0 8 5 14 11 14 6 0 8 -9 4 -22z m-1 -72 c-4 -19 -13 -26 -30 -26 -31 0 -30 6 4 35 32 27 35 26 26 -9z"/>
 <path d="M2885 4030 c-77 -4 -163 -12 -192 -18 -56 -12 -133 -49 -172 -82 -34 -29 -20 -36 15 -8 81 65 176 84 469 93 l230 6 50 -26 c28 -15 63 -34 79 -43 74 -39 168 -175 219 -317 15 -43 36 -215 37 -307 0 -16 5 -28 11 -28 12 0 3 197 -12 275 -6 28 -35 101 -66 163 -64 131 -112 186 -223 252 l-74 45 -116 1 c-63 1 -178 -2 -255 -6z"/>
 <path d="M4979 3647 c6 -6 175 -10 458 -12 246 -1 481 -5 521 -10 47 -5 72 -4 72 2 0 19 -156 27 -608 28 -302 2 -450 -1 -443 -8z"/>
 <path d="M950 3445 c-85 -7 -173 -20 -195 -28 -28 -11 -60 -14 -107 -10 -53 5 -80 1 -125 -15 -32 -11 -73 -23 -91 -27 -17 -4 -32 -10 -32 -15 0 -13 68 0 120 22 34 15 64 19 125 16 55 -1 96 3 130 14 56 19 319 38 510 38 102 0 125 -3 153 -20 39 -24 46 -25 34 -4 -25 45 -198 55 -522 29z"/>
 <path d="M3423 3273 c-22 -3 -44 -18 -72 -48 -37 -41 -41 -49 -41 -98 0 -49 4 -59 38 -97 44 -50 59 -50 133 -1 40 27 47 38 58 83 21 86 -15 172 -69 166 -8 0 -29 -3 -47 -5z m106 -103 c1 -20 -1 -22 -9 -10 -5 8 -9 31 -9 50 1 32 2 33 9 10 4 -14 8 -36 9 -50z m-109 56 c0 -2 -9 -6 -20 -9 -11 -3 -18 -1 -14 4 5 9 34 13 34 5z m25 -51 c-27 -22 -31 -23 -37 -7 -11 29 -9 32 30 32 l37 -1 -30 -24z m-53 -50 c2 -51 0 -64 -10 -60 -8 3 -16 5 -18 5 -6 0 -5 72 2 98 11 41 22 23 26 -43z m88 37 c0 -5 -10 -17 -22 -28 -13 -11 -18 -13 -12 -4 5 8 9 18 10 23 3 15 4 17 14 17 6 0 10 -4 10 -8z m-25 -62 c-10 -11 -25 -20 -34 -20 -10 0 -5 8 14 20 38 25 43 25 20 0z m55 5 c0 -8 -4 -15 -10 -15 -5 0 -7 7 -4 15 4 8 8 15 10 15 2 0 4 -7 4 -15z m-40 -25 c-6 -11 -16 -20 -22 -20 -6 0 -3 9 7 20 10 11 20 20 22 20 2 0 -1 -9 -7 -20z m0 -35 c-7 -8 -22 -15 -34 -15 -17 1 -16 3 9 15 39 18 40 18 25 0z"/>
 <path d="M4800 2541 c0 -5 30 -19 66 -31 46 -16 94 -44 156 -91 50 -38 94 -69 99 -69 6 0 25 -15 43 -32 29 -29 75 -71 220 -199 52 -46 200 -158 246 -186 42 -25 109 -47 117 -39 3 3 -11 13 -33 21 -65 25 -107 48 -141 75 -18 14 -50 39 -73 55 -22 17 -49 37 -58 46 -9 8 -46 40 -81 70 -35 30 -76 65 -90 79 -73 69 -144 130 -153 130 -5 0 -48 30 -95 67 -57 43 -110 74 -152 89 -77 28 -71 26 -71 15z"/>
 <path d="M1575 2089 c-5 -5 -24 -19 -42 -32 -30 -21 -67 -48 -259 -191 -43 -32 -96 -77 -117 -100 -69 -74 -132 -136 -139 -136 -4 0 -46 -38 -94 -85 -48 -47 -107 -100 -131 -118 -25 -17 -40 -33 -34 -35 15 -5 84 49 167 133 40 39 82 78 95 87 14 8 47 39 74 67 28 28 68 69 90 91 41 41 291 232 371 283 24 16 44 33 44 38 0 12 -12 11 -25 -2z"/>
 <path d="M4070 1945 c0 -4 13 -17 29 -31 17 -14 47 -48 67 -77 21 -29 61 -79 90 -113 29 -33 64 -86 78 -117 15 -31 50 -91 79 -134 29 -43 61 -98 72 -123 11 -25 44 -73 75 -107 31 -35 77 -105 105 -159 28 -54 56 -99 63 -102 8 -2 5 9 -8 30 -11 18 -25 44 -30 58 -28 66 -57 110 -108 168 -30 35 -68 91 -84 125 -16 33 -44 81 -62 106 -19 25 -52 81 -75 124 -22 42 -64 106 -93 141 -29 35 -76 93 -105 129 -46 58 -93 99 -93 82z"/>
 <path d="M2492 1423 c3 -63 -39 -143 -139 -266 -34 -42 -73 -96 -85 -118 -27 -49 -27 -50 -101 -161 -31 -48 -67 -106 -80 -130 -13 -24 -41 -70 -63 -103 -23 -33 -58 -94 -78 -135 -49 -101 -71 -138 -94 -164 -28 -30 -44 -65 -36 -77 3 -6 14 6 24 28 9 21 24 44 33 51 9 8 37 55 63 105 26 51 53 103 60 117 8 14 29 48 48 75 19 28 46 73 61 100 28 55 40 74 103 165 23 34 42 64 42 66 0 11 99 157 139 204 26 30 58 73 72 95 28 43 61 143 53 157 -9 14 -23 8 -22 -9z"/>
 <path d="M3310 1383 c1 -25 19 -104 29 -128 5 -11 15 -36 21 -55 12 -32 18 -47 48 -121 6 -15 18 -57 27 -95 26 -113 34 -143 77 -279 23 -71 45 -134 50 -140 4 -5 8 -17 8 -27 0 -10 11 -45 24 -77 14 -32 28 -81 32 -109 7 -51 24 -73 24 -29 -1 33 -13 76 -68 232 -27 77 -51 147 -54 155 -3 8 -11 31 -17 50 -14 37 -24 75 -40 154 -23 103 -60 216 -116 351 -7 17 -16 54 -20 83 -4 28 -11 52 -16 52 -5 0 -9 -8 -9 -17z"/>
 </g>

</svg>